<svg width="512" height="512" viewBox="0 0 512 512" fill="none" xmlns="http://www.w3.org/2000/svg">
<path d="M472 176H40V488H472V176Z" fill="#408EB8"/>
<path d="M411.003 48H100.997C93.093 48 85.931 52.655 82.721 59.877L24 192H488L429.279 59.877C426.069 52.655 418.906 48 411.003 48Z" fill="#DB4B4B"/>
<path d="M256 240C238.327 240 224 225.673 224 208V192H288V208C288 225.673 273.673 240 256 240Z" fill="#C9A544"/>
<path d="M320 240C302.327 240 288 225.673 288 208V192H352V208C352 225.673 337.673 240 320 240Z" fill="#C94545"/>
<path d="M384 240C366.327 240 352 225.673 352 208V192H416V208C416 225.673 401.673 240 384 240Z" fill="#C9A544"/>
<path d="M452 240C432.118 240 416 223.882 416 204V192H488V204C488 223.882 471.882 240 452 240ZM192 240C209.673 240 224 225.673 224 208V192H160V208C160 225.673 174.327 240 192 240Z" fill="#C94545"/>
<path d="M128 240C145.673 240 160 225.673 160 208V192H96V208C96 225.673 110.327 240 128 240Z" fill="#C9A544"/>
<path d="M60 240C79.882 240 96 223.882 96 204V192H24V204C24 223.882 40.118 240 60 240Z" fill="#C94545"/>
<path d="M288 48H224V192H288V48Z" fill="#EBC150"/>
<path d="M344 48H288V192H352L344 48Z" fill="#DB4B4B"/>
<path d="M392 48H344L352 192H416L392 48Z" fill="#EBC150"/>
<path d="M168 48H224V192H160L168 48Z" fill="#DB4B4B"/>
<path d="M120 48H168L160 192H96L120 48Z" fill="#EBC150"/>
<path d="M176 344H80V488H176V344Z" fill="#EBC150"/>
<path d="M440 272H208V456H440V272Z" fill="#51B3E8"/>
<path d="M380.432 24H131.568C120.761 24 112 32.761 112 43.568V52.431C112 63.239 120.761 72 131.568 72H380.431C391.239 72 400 63.239 400 52.432V43.569C400 32.761 391.239 24 380.432 24Z" fill="#408EB8"/>
<path d="M304 376H208V456H304V376Z" fill="#B97C45"/>
<path d="M416 376H304V456H416V376Z" fill="#C9874B"/>
<path d="M264 416L248 408L232 416V376H264V416Z" fill="#EBC150"/>
<path d="M376 416L360 408L344 416V376H376V416Z" fill="#EBC150"/>
<path d="M304 296H208V376H304V296Z" fill="#C9874B"/>
<path d="M264 336L248 328L232 336V296H264V336Z" fill="#EBC150"/>
<path d="M416 320C413.952 320 411.905 319.219 410.343 317.657L394.343 301.657C391.219 298.532 391.219 293.468 394.343 290.343C397.468 287.22 402.532 287.22 405.657 290.343L421.657 306.343C424.781 309.468 424.781 314.532 421.657 317.657C420.095 319.219 418.048 320 416 320ZM408 344C405.952 344 403.905 343.219 402.343 341.657L370.343 309.657C367.219 306.532 367.219 301.468 370.343 298.343C373.468 295.22 378.532 295.22 381.657 298.343L413.657 330.343C416.781 333.468 416.781 338.532 413.657 341.657C412.095 343.219 410.048 344 408 344Z" fill="#214A5F"/>
<path d="M112 416C112 420.42 108.42 424 104 424H80V408H104C108.42 408 112 411.58 112 416ZM157.083 312H98.917C88.469 312 80 303.531 80 293.083V290.916C80 280.469 88.469 272 98.917 272H157.084C167.531 272 176.001 280.469 176.001 290.917V293.084C176 303.531 167.531 312 157.083 312Z" fill="#6E2626"/>
<path d="M495.311 188.751L436.59 56.628C432.099 46.527 422.056 40 411.002 40H407.761C406.005 26.479 394.423 16 380.431 16H131.568C117.577 16 105.995 26.479 104.238 40H100.997C89.943 40 79.9 46.526 75.409 56.628L16.689 188.751C16.235 189.773 16 190.881 16 192V204C16 217.634 22.234 229.839 32 237.916V488C32 492.418 35.582 496 40 496H472C476.418 496 480 492.418 480 488V237.916C489.766 229.839 496 217.634 496 204V192C496 190.881 495.765 189.773 495.311 188.751ZM407.761 56H411.002C415.739 56 420.044 58.797 421.969 63.126L475.69 184H422.778L403.39 67.672C405.674 64.242 407.206 60.273 407.761 56ZM406.556 184H359.567L353.79 80H380.432C383.421 80 386.297 79.516 388.995 78.632L406.556 184ZM408 200V208C408 221.233 397.233 232 384 232C370.767 232 360 221.233 360 208V200H408ZM120 43.568C120 37.189 125.189 32 131.568 32H380.431C386.811 32 392 37.189 392 43.568V52.431C392 58.811 386.811 64 380.432 64H131.568C125.189 64 120 58.811 120 52.432V43.568ZM344 200V208C344 221.233 333.233 232 320 232C306.767 232 296 221.233 296 208V200H344ZM296 184V80H337.766L343.544 184H296ZM232 184V80H280V184H232ZM280 200V208C280 221.233 269.233 232 256 232C242.767 232 232 221.233 232 208V200H280ZM168.456 184L174.234 80H216V184H168.456ZM216 200V208C216 221.233 205.233 232 192 232C178.767 232 168 221.233 168 208V200H216ZM123.005 78.632C125.703 79.516 128.579 80 131.568 80H158.21L152.432 184H105.443L123.005 78.632ZM152 200V208C152 221.233 141.233 232 128 232C114.767 232 104 221.233 104 208V200H152ZM90.031 63.127C91.955 58.798 96.261 56 100.998 56H104.239C104.794 60.273 106.326 64.242 108.611 67.672L89.222 184H36.31L90.031 63.127ZM32 204V200H88V204C88 219.439 75.439 232 60 232C44.561 232 32 219.439 32 204ZM168 480H88V424H104C108.418 424 112 420.418 112 416C112 411.582 108.418 408 104 408H88V352H168V480ZM464 480H184V344C184 339.582 180.418 336 176 336H80C75.582 336 72 339.582 72 344V480H48V246.323C51.818 247.407 55.84 248 60 248C74.271 248 86.975 241.173 95.02 230.611C102.237 241.106 114.328 248 128 248C141.07 248 152.696 241.699 160 231.975C167.304 241.7 178.93 248 192 248C205.07 248 216.696 241.699 224 231.975C231.304 241.7 242.93 248 256 248C269.07 248 280.696 241.699 288 231.975C295.304 241.7 306.93 248 320 248C333.07 248 344.696 241.699 352 231.975C359.304 241.7 370.93 248 384 248C397.672 248 409.763 241.106 416.98 230.611C425.025 241.173 437.729 248 452 248C456.16 248 460.182 247.407 464 246.323V480ZM480 204C480 219.439 467.439 232 452 232C436.561 232 424 219.439 424 204V200H480V204Z" fill="black"/>
<path d="M440 264H208C203.582 264 200 267.582 200 272V296V376V456C200 460.418 203.582 464 208 464H440C444.418 464 448 460.418 448 456V272C448 267.582 444.418 264 440 264ZM296 448H216V384H224V416C224 418.772 225.436 421.348 227.794 422.806C230.153 424.264 233.096 424.395 235.578 423.156L248 416.944L260.422 423.155C261.552 423.719 262.776 424 264 424C265.462 424 266.921 423.6 268.206 422.806C270.564 421.348 272 418.773 272 416V384H296V448ZM240 403.056V384H256V403.056L251.578 400.845C250.451 400.281 249.226 400 248 400C246.774 400 245.549 400.281 244.422 400.845L240 403.056ZM296 368H216V304H224V336C224 338.772 225.436 341.348 227.794 342.806C230.153 344.264 233.096 344.395 235.578 343.156L248 336.944L260.422 343.155C261.552 343.719 262.776 344 264 344C265.462 344 266.921 343.6 268.206 342.806C270.564 341.348 272 338.773 272 336V304H296V368ZM240 323.056V304H256V323.056L251.578 320.845C250.451 320.281 249.226 320 248 320C246.774 320 245.549 320.281 244.422 320.845L240 323.056ZM408 448H312V384H336V416C336 418.772 337.436 421.348 339.794 422.806C342.153 424.264 345.097 424.395 347.578 423.156L360 416.944L372.422 423.155C373.552 423.719 374.776 424 376 424C377.462 424 378.921 423.6 380.206 422.806C382.564 421.348 384 418.773 384 416V384H408V448ZM352 403.056V384H368V403.056L363.578 400.845C362.451 400.281 361.226 400 360 400C358.774 400 357.549 400.281 356.422 400.845L352 403.056ZM432 448H424V376C424 371.582 420.418 368 416 368H312V296C312 291.582 308.418 288 304 288H216V280H432V448Z" fill="black"/>
<path d="M410.343 317.657C411.905 319.219 413.952 320 416 320C418.048 320 420.095 319.219 421.657 317.657C424.781 314.532 424.781 309.468 421.657 306.343L405.657 290.343C402.532 287.22 397.468 287.22 394.343 290.343C391.219 293.468 391.219 298.532 394.343 301.657L410.343 317.657ZM402.343 341.657C403.905 343.219 405.952 344 408 344C410.048 344 412.095 343.219 413.657 341.657C416.781 338.532 416.781 333.468 413.657 330.343L381.657 298.343C378.532 295.22 373.468 295.22 370.343 298.343C367.219 301.468 367.219 306.532 370.343 309.657L402.343 341.657ZM157.083 264H98.917C84.075 264 72 276.075 72 290.917V293.083C72 307.925 84.075 320 98.917 320H157.083C171.925 320 184 307.925 184 293.083V290.917C184 276.075 171.925 264 157.083 264ZM168 293.083C168 299.103 163.103 304 157.083 304H98.917C92.897 304 88 299.103 88 293.083V290.917C88 284.897 92.897 280 98.917 280H157.083C163.103 280 168 284.897 168 290.917V293.083Z" fill="black"/>
</svg>
